<svg width="40" height="40" viewBox="0 0 40 40" fill="none" xmlns="http://www.w3.org/2000/svg">
<circle cx="20" cy="20" r="20" fill="#007AFE"/>
<path d="M19.5328 6.01063C16.8983 6.14294 15.1494 7.34162 14.4648 9.48226C14.2414 10.1813 14.1277 11.0601 14.1581 11.8421C14.1845 12.5056 14.2353 12.7663 14.3978 13.0763C14.477 13.2304 14.607 13.4278 14.6842 13.5147C14.7208 13.5542 14.7228 13.572 14.7005 13.8307C14.6862 13.9808 14.6741 14.1921 14.672 14.3007C14.668 14.4508 14.6639 14.4231 14.6598 14.1921C14.6558 13.9827 14.6477 13.9018 14.6355 13.9353C14.6233 13.9669 14.6212 13.8998 14.6253 13.7477C14.6314 13.572 14.6294 13.5384 14.6152 13.6194C14.607 13.6786 14.5908 13.9255 14.5786 14.1664C14.5177 15.3848 14.7127 16.9074 15.1555 18.7064L15.2286 19.0045L15.5678 19.2316C15.7547 19.358 16.0614 19.5614 16.2503 19.6858L16.5916 19.909L16.5794 20.0373C16.5489 20.3158 16.427 20.7404 16.2787 21.084C16.1752 21.3209 15.9253 21.8067 15.8989 21.8245C15.8867 21.8304 15.2164 21.9726 14.41 22.1424C9.47812 23.1673 10.0022 23.0528 9.82344 23.1496C8.86875 23.6729 8.19437 24.6958 7.67234 26.4158C7.62766 26.5619 7.49359 27.0339 7.37578 27.4624C7.25594 27.891 7.12391 28.3491 7.07922 28.4814C7.03656 28.6117 7 28.7322 7 28.75C7 28.7816 7.59312 29.3562 7.78812 29.5122C7.98719 29.6702 8.20656 29.8084 8.41984 29.9092L8.61484 30H19.9695H31.3242L31.4887 29.9348C31.7812 29.8203 32.0027 29.6761 32.5064 29.2634C32.6547 29.143 32.8273 29.0067 32.8883 28.9613C32.9573 28.9099 33 28.8645 33 28.8408C33 28.8191 32.937 28.6493 32.8598 28.4617C32.7827 28.276 32.5816 27.7646 32.4109 27.3242C32.2423 26.8838 32.0311 26.3487 31.9417 26.1314C31.2084 24.3502 30.5219 23.3905 29.7033 23.0034C29.5611 22.9363 29.4717 22.9106 29.1102 22.8435C28.8766 22.8 27.6192 22.567 26.3172 22.3281C25.0152 22.0871 23.9487 21.8877 23.9467 21.8857C23.9447 21.8837 23.8472 21.3782 23.7314 20.7621L23.5202 19.6424L23.6339 19.5496C23.6969 19.4982 23.9041 19.3245 24.093 19.1645L24.4403 18.8742L24.5155 18.4931C24.6577 17.7743 24.7531 17.0693 24.8323 16.1372C24.9075 15.2604 24.9644 14.3678 24.9522 14.2908C24.9481 14.2631 24.9359 14.3698 24.9278 14.5278C24.9116 14.7884 24.9075 14.8082 24.8852 14.745C24.8628 14.6798 24.8587 14.6917 24.8445 14.9089C24.8364 15.0373 24.8262 15.138 24.8202 15.132C24.8141 15.1281 24.8202 14.9523 24.8323 14.741C24.8445 14.5317 24.8648 14.1684 24.877 13.9353C24.9014 13.5246 24.9034 13.5088 24.9562 13.4318C25.1817 13.1099 25.3462 12.6991 25.4234 12.2667C25.5981 11.2793 25.458 10.1043 25.0456 9.1189C24.3367 7.42259 22.9128 6.33055 21.0664 6.06593C20.65 6.00668 20.0386 5.98496 19.5328 6.01063ZM14.6111 14.117C14.607 14.1427 14.603 14.1269 14.603 14.0834C14.6009 14.04 14.605 14.0203 14.6111 14.038C14.6152 14.0578 14.6152 14.0933 14.6111 14.117ZM24.808 15.3611C24.8039 15.3967 24.7998 15.369 24.7998 15.2979C24.7998 15.2268 24.8039 15.1992 24.808 15.2328C24.812 15.2683 24.812 15.3275 24.808 15.3611ZM24.7877 15.5981C24.7816 15.6119 24.7775 15.602 24.7775 15.5744C24.7775 15.5467 24.7816 15.5369 24.7877 15.5487C24.7917 15.5625 24.7917 15.5862 24.7877 15.5981Z" fill="white"/>
</svg>
